<svg xmlns="http://www.w3.org/2000/svg" height="800" width="1200" version="1.0" viewBox="-42.26715 -27.91775 366.3153 167.5065"><defs><clipPath id="b"><path d="M6.969 52.625H119.21V7.523H6.969z"/></clipPath><clipPath id="a"><path d="M-42.11 721.18h612v-792h-612z"/></clipPath></defs><g clip-path="url(#a)" transform="translate(-17.506 -18.9) scale(2.51207)"><g clip-path="url(#b)" fill="#211e1e"><path d="M101.371 34.719c-.035-.211-.035-.395 1.016-.723 1.047-.324 3.593-1.187 5.14-2.043 1.547-.863 1.805-.984 2.168-.742.364.238.258.824.258 1.238v4.196c.567-.93 2.426-4.024 3.902-4.934 1.16-.719 1.57-.777 2.29-.793.863-.016 2.902.516 2.992 2.668.07 1.684-1.172 2.36-1.961 2.254-.633-.09-1.086-.672-1.461-1.258-.38-.594-.98-.945-1.582-.742-.602.207-3.973 2.394-4.164 5.504-.137 2.289 0 9.426 0 9.426 0 1.082.414 1.5.898 1.789.48.293 2.25.308 2.746.379.504.07.485.187.485.343 0 .153 0 .227-.446.227h-11.851c-.38 0-.531-.074-.531-.297 0-.309.496-.254.875-.309.378-.05 2.382.114 2.957-.894.421-.66.37-1.723.37-1.723l-.058-12.535c0-1.012-.3-1.16-.578-1.32-.281-.16-.746-.246-1.727.086-.925.304-1.562.59-1.738.203m-41.449.004c-.16-.309.137-.508 1.016-.739.98-.261 3.128-.914 4.832-1.879 1.703-.96 1.996-1.062 2.355-.945.363.121.328.758.328 1.274v16.218c0 .91.121 1.29.531 1.668.414.38 1.446.602 2.786.602.605 0 .793.07.793.328s-.188.258-.43.258H60.37c-.363 0-.45-.156-.45-.309 0-.191.161-.312.708-.312.46 0 2.59.16 3.074-.946.188-.421.277-1.011.277-1.562V35.512c0-.977-.757-1.41-1.632-1.2-1.024.235-2.215.813-2.426.41m5.997-11.218a2.895 2.895 0 002.894-2.89 2.892 2.892 0 00-2.894-2.891 2.89 2.89 0 000 5.781m14.137 18.394c.582 5.262 3.715 9.356 7.597 8.668 3.891-.687 5.84-4.402 5.371-10.351-.48-6.05-3.472-9.07-7.5-8.707-4.164.379-6.054 5.125-5.468 10.39m3.851-11.316c5.012-.937 12.14.168 13.762 8.012 1.617 7.843-3.781 12.02-8.465 13.039-4.578.992-12.351.285-13.758-8.153-1.265-7.574 4.23-12.109 8.461-12.898M24.57 50.238h2.907c10.812 0 13.714-1.004 17.52-6.058 3.804-5.055 4.257-12.313 4.257-14.766 0-2.453-.652-8.61-4.457-13.816-3.809-5.207-10.164-6.559-15.723-6.559h-4.527c-1.074 0-1.129.477-1.129 1.227v39.02c0 .85.3.952 1.152.952m-17.605.914c0-.394.512-.46.988-.476 5.504-.156 6.531-.348 7.16-1 .344-.36.848-.653.848-3.203V11.379c0-3.152-3.828-2.652-6.531-2.93-.95-.094-1.028-.222-1.028-.5 0-.273.18-.406.676-.426h22.176c24.383 0 25.629 17.825 25.629 22.579 0 10.214-6.754 21.449-20.871 21.449H7.676c-.348 0-.711-.047-.711-.399"/></g></g></svg>